<svg width="99" height="100" viewBox="0 0 99 100" fill="none" xmlns="http://www.w3.org/2000/svg">
<circle cx="49.4747" cy="28.2828" r="27.7778" stroke="#F0D4D7" stroke-width="1.0101"/>
<line x1="49.9797" y1="56.5657" x2="49.9797" y2="88.8889" stroke="#F0D4D7" stroke-width="1.0101"/>
<path d="M38.3635 100L38.8686 66.1616L49.9797 56.0606L60.0807 66.1616V100" stroke="#F0D4D7" stroke-width="1.0101"/>
<path d="M25.2322 12.1212L43.4927 54.3093L50.1043 40.7714L55.4565 54.3093L73.717 12.1212" stroke="#F0D4D7" stroke-width="0.629673"/>
<path d="M25.2322 3.03027L43.4927 45.2184L50.1043 31.6804L55.4565 45.2184L73.717 3.03027" stroke="#F0D4D7" stroke-width="0.629673"/>
<path d="M3.37839 82.8283C0.971725 88.4722 1.36026 91.4107 7.41879 95.9596C13.7172 99.6324 17.2441 99.6564 23.5804 95.9596C22.94 88.0174 25.4514 85.3252 33.6814 82.8283C29.4833 76.6286 30.6753 73.5079 35.1966 68.1818C39.6144 61.0059 38.3738 56.731 30.6511 48.9899C37.754 53.7886 41.913 55.1853 49.4748 56.5656C57.3414 55.4874 61.4817 53.7125 68.5299 48.9899C62.3198 56.9288 60.7303 61.1904 63.9844 68.1818C67.2428 73.9028 67.2632 77.1061 63.9844 82.8283C70.9224 85.8078 73.077 88.8182 74.5905 95.9596C82.7831 99.8609 86.5249 99.4716 92.2673 95.9596C98.1331 91.8759 98.3485 88.8377 96.3077 82.8283" stroke="#E4D4BB" stroke-width="0.629673"/>
</svg>
