<svg width="230" height="100" viewBox="0 0 230 100" fill="none" xmlns="http://www.w3.org/2000/svg">
<circle cx="124.475" cy="28.2828" r="27.7778" stroke="#EFEEE5" stroke-width="1.0101"/>
<line x1="124.98" y1="56.5657" x2="124.98" y2="88.8889" stroke="#EFEEE5" stroke-width="1.0101"/>
<path d="M113.364 100L113.869 66.1616L124.98 56.0606L135.081 66.1616V100" stroke="#EFEEE5" stroke-width="1.0101"/>
<path d="M100.232 12.1212L118.493 54.3093L125.104 40.7714L130.456 54.3093L148.717 12.1212" stroke="#EFEEE5" stroke-width="0.629673"/>
<path d="M100.232 3.03027L118.493 45.2184L125.104 31.6804L130.456 45.2184L148.717 3.03027" stroke="#EFEEE5" stroke-width="0.629673"/>
<path d="M78.3784 82.8283C75.9717 88.4722 76.3603 91.4107 82.4188 95.9596C88.7172 99.6324 92.2441 99.6564 98.5804 95.9596C97.94 88.0174 100.451 85.3252 108.681 82.8283C104.483 76.6286 105.675 73.5079 110.197 68.1818C114.614 61.0059 113.374 56.731 105.651 48.9899C112.754 53.7886 116.913 55.1853 124.475 56.5656C132.341 55.4874 136.482 53.7125 143.53 48.9899C137.32 56.9288 135.73 61.1904 138.984 68.1818C142.243 73.9028 142.263 77.1061 138.984 82.8283C145.922 85.8078 148.077 88.8182 149.591 95.9596C157.783 99.8609 161.525 99.4716 167.267 95.9596C173.133 91.8759 173.348 88.8377 171.308 82.8283" stroke="#EFEEE5" stroke-width="0.629673"/>
<path d="M156.668 67.1328C157.113 67.1172 157.52 67.0859 157.887 67.0391C158.262 66.9844 158.613 66.8789 158.941 66.7227C159.168 66.6133 159.332 66.4492 159.434 66.2305C159.543 66.0039 159.59 65.7539 159.574 65.4805H159.609C159.711 65.9258 159.797 66.3086 159.867 66.6289C159.938 66.9414 159.996 67.1992 160.043 67.4023C160.098 67.6445 160.141 67.8438 160.172 68H153.48V67.9414C153.879 67.8086 154.184 67.5938 154.395 67.2969C154.605 66.9922 154.73 66.6289 154.77 66.207C154.848 64.9883 154.895 63.8242 154.91 62.7148C154.934 61.5977 154.945 60.543 154.945 59.5508C154.945 58.6758 154.938 57.8086 154.922 56.9492C154.914 56.082 154.863 55.1797 154.77 54.2422C154.73 53.8203 154.605 53.4609 154.395 53.1641C154.184 52.8594 153.879 52.6406 153.48 52.5078V52.4492H160.172C160.141 52.6055 160.098 52.8047 160.043 53.0469C159.996 53.25 159.938 53.5117 159.867 53.832C159.797 54.1445 159.711 54.5234 159.609 54.9688H159.574C159.59 54.6953 159.543 54.4492 159.434 54.2305C159.332 54.0039 159.168 53.8359 158.941 53.7266C158.613 53.5703 158.262 53.4688 157.887 53.4219C157.52 53.3672 157.113 53.332 156.668 53.3164C156.621 54.2852 156.586 55.2461 156.562 56.1992C156.539 57.1445 156.523 58.0898 156.516 59.0352C156.773 59.0352 157.02 59.0352 157.254 59.0352C157.496 59.0352 157.723 59.0234 157.934 59C158.34 58.9609 158.652 58.8398 158.871 58.6367C159.09 58.4336 159.23 58.1836 159.293 57.8867H159.328V61.0977H159.293C159.23 60.8008 159.086 60.5508 158.859 60.3477C158.633 60.1445 158.316 60.0234 157.91 59.9844C157.707 59.9609 157.492 59.9492 157.266 59.9492C157.039 59.9492 156.789 59.9453 156.516 59.9375V59.9844C156.516 61.1484 156.527 62.3477 156.551 63.582C156.582 64.8086 156.621 65.9922 156.668 67.1328ZM168.938 60.5352C168.969 60.9961 168.992 61.4805 169.008 61.9883C169.023 62.4961 169.035 63.0117 169.043 63.5352C169.051 64.0508 169.055 64.5703 169.055 65.0938C169.055 65.6172 169.055 66.1289 169.055 66.6289C169.062 66.832 169.09 67.0039 169.137 67.1445C169.184 67.2852 169.246 67.4062 169.324 67.5078C169.402 67.6016 169.5 67.6836 169.617 67.7539C169.734 67.8242 169.871 67.8867 170.027 67.9414V68H166.488V67.9414C166.762 67.8164 166.961 67.6602 167.086 67.4727C167.211 67.2773 167.281 66.9805 167.297 66.582C167.305 66.2617 167.312 65.9414 167.32 65.6211C167.336 65.293 167.344 64.9805 167.344 64.6836C167.352 64.3867 167.355 64.1133 167.355 63.8633C167.363 63.6055 167.367 63.3867 167.367 63.207C167.367 62.3789 167.355 61.6211 167.332 60.9336C167.316 60.2461 167.266 59.6602 167.18 59.1758C167.102 58.6836 166.977 58.3047 166.805 58.0391C166.633 57.7656 166.395 57.6289 166.09 57.6289C165.809 57.6289 165.539 57.7031 165.281 57.8516C165.023 58 164.797 58.2109 164.602 58.4844C164.414 58.75 164.262 59.0703 164.145 59.4453C164.035 59.8203 163.98 60.2344 163.98 60.6875V61.7422C163.98 62.1172 163.98 62.5156 163.98 62.9375C163.988 63.3516 163.996 63.7695 164.004 64.1914C164.012 64.6133 164.02 65.0312 164.027 65.4453C164.043 65.8594 164.062 66.2539 164.086 66.6289C164.102 66.832 164.133 67.0039 164.18 67.1445C164.234 67.2852 164.305 67.4062 164.391 67.5078C164.477 67.6016 164.582 67.6836 164.707 67.7539C164.84 67.8242 164.996 67.8867 165.176 67.9414V68H161.133V67.9414C161.531 67.8164 161.816 67.6602 161.988 67.4727C162.168 67.2773 162.27 66.9805 162.293 66.582C162.309 66.207 162.324 65.8203 162.34 65.4219C162.355 65.0156 162.367 64.6172 162.375 64.2266C162.391 63.8281 162.402 63.4414 162.41 63.0664C162.418 62.6914 162.422 62.3398 162.422 62.0117C162.422 61.207 162.414 60.5391 162.398 60.0078C162.383 59.4688 162.328 59.0391 162.234 58.7188C162.148 58.3984 162.004 58.1719 161.801 58.0391C161.605 57.9062 161.324 57.8398 160.957 57.8398V57.7812L164.133 56.375C164.07 56.5547 164.035 56.7656 164.027 57.0078C164.02 57.2422 164.016 57.4844 164.016 57.7344C164.172 57.4531 164.344 57.2266 164.531 57.0547C164.719 56.875 164.91 56.7383 165.105 56.6445C165.301 56.543 165.492 56.4727 165.68 56.4336C165.875 56.3945 166.055 56.375 166.219 56.375C166.719 56.375 167.156 56.5195 167.531 56.8086C167.914 57.0977 168.219 57.5234 168.445 58.0859C168.625 57.7422 168.82 57.4609 169.031 57.2422C169.25 57.0156 169.469 56.8398 169.688 56.7148C169.914 56.582 170.133 56.4922 170.344 56.4453C170.562 56.3984 170.762 56.375 170.941 56.375C171.855 56.375 172.578 56.7734 173.109 57.5703C173.641 58.3672 173.906 59.5312 173.906 61.0625C173.906 61.5625 173.906 62.043 173.906 62.5039C173.906 62.9648 173.91 63.4219 173.918 63.875C173.926 64.3281 173.938 64.7812 173.953 65.2344C173.969 65.6875 173.988 66.1523 174.012 66.6289C174.027 66.832 174.062 67.0039 174.117 67.1445C174.172 67.2852 174.25 67.4062 174.352 67.5078C174.453 67.6016 174.574 67.6836 174.715 67.7539C174.855 67.8242 175.023 67.8867 175.219 67.9414V68H171.328V67.9414C171.641 67.8164 171.867 67.6602 172.008 67.4727C172.156 67.2773 172.238 66.9805 172.254 66.582C172.262 66.2617 172.27 65.9414 172.277 65.6211C172.293 65.293 172.301 64.9805 172.301 64.6836C172.309 64.3867 172.312 64.1133 172.312 63.8633C172.32 63.6055 172.324 63.3867 172.324 63.207C172.324 62.3789 172.312 61.6211 172.289 60.9336C172.273 60.2461 172.219 59.6602 172.125 59.1758C172.031 58.6836 171.891 58.3047 171.703 58.0391C171.516 57.7656 171.258 57.6289 170.93 57.6289C170.672 57.6289 170.422 57.6992 170.18 57.8398C169.945 57.9805 169.738 58.1797 169.559 58.4375C169.379 58.6953 169.23 59.0039 169.113 59.3633C169.004 59.7148 168.945 60.1055 168.938 60.5352ZM176.742 63.875C176.75 62.9531 176.746 62.0586 176.73 61.1914C176.723 60.3242 176.691 59.4414 176.637 58.543C176.605 58.0664 176.484 57.6641 176.273 57.3359C176.062 57 175.742 56.7617 175.312 56.6211V56.5625H177.48C177.73 56.6719 177.918 56.8203 178.043 57.0078C178.176 57.1953 178.273 57.4023 178.336 57.6289C178.383 57.543 178.457 57.4297 178.559 57.2891C178.66 57.1484 178.793 57.0156 178.957 56.8906C179.121 56.7578 179.316 56.6445 179.543 56.5508C179.777 56.4492 180.047 56.3945 180.352 56.3867C180.938 56.3789 181.449 56.5312 181.887 56.8438C182.324 57.1484 182.691 57.5781 182.988 58.1328C183.285 58.6797 183.508 59.332 183.656 60.0898C183.805 60.8477 183.879 61.6719 183.879 62.5625C183.879 63.4453 183.789 64.2344 183.609 64.9297C183.43 65.625 183.176 66.2148 182.848 66.6992C182.527 67.1836 182.141 67.5547 181.688 67.8125C181.242 68.0625 180.75 68.1875 180.211 68.1875C180.062 68.1875 179.898 68.168 179.719 68.1289C179.547 68.0977 179.371 68.043 179.191 67.9648C179.02 67.8789 178.855 67.7734 178.699 67.6484C178.551 67.5156 178.426 67.3594 178.324 67.1797C178.324 67.9062 178.328 68.5312 178.336 69.0547C178.344 69.5781 178.395 70.0078 178.488 70.3438C178.59 70.6875 178.754 70.9414 178.98 71.1055C179.215 71.2695 179.555 71.3516 180 71.3516V71.4102L176.59 72.3477C176.621 72.0664 176.645 71.6875 176.66 71.2109C176.676 70.7344 176.688 70.2188 176.695 69.6641C176.711 69.1094 176.719 68.5469 176.719 67.9766C176.727 67.4062 176.73 66.8828 176.73 66.4062L176.742 63.875ZM180.152 57.4531C179.934 57.4531 179.723 57.5078 179.52 57.6172C179.316 57.7266 179.133 57.8906 178.969 58.1094C178.812 58.3203 178.68 58.5859 178.57 58.9062C178.469 59.2266 178.41 59.6016 178.395 60.0312C178.371 60.4219 178.352 60.793 178.336 61.1445C178.328 61.4883 178.32 61.8281 178.312 62.1641C178.312 62.4922 178.309 62.8203 178.301 63.1484C178.301 63.4766 178.301 63.8164 178.301 64.168C178.301 64.8711 178.363 65.418 178.488 65.8086C178.613 66.1992 178.762 66.4883 178.934 66.6758C179.105 66.8555 179.281 66.9648 179.461 67.0039C179.648 67.043 179.797 67.0625 179.906 67.0625C181.383 67.0625 182.121 65.5625 182.121 62.5625C182.121 61.7344 182.074 61.0039 181.98 60.3711C181.887 59.7305 181.75 59.1953 181.57 58.7656C181.398 58.3359 181.191 58.0117 180.949 57.793C180.707 57.5664 180.441 57.4531 180.152 57.4531ZM187.137 62.3516C187.137 63.9219 187.293 65.1055 187.605 65.9023C187.918 66.6992 188.355 67.0977 188.918 67.0977C189.488 67.0977 189.914 66.6992 190.195 65.9023C190.484 65.1055 190.629 63.9219 190.629 62.3516C190.629 60.7812 190.484 59.6016 190.195 58.8125C189.914 58.0234 189.488 57.6289 188.918 57.6289C188.355 57.6289 187.918 58.0234 187.605 58.8125C187.293 59.6016 187.137 60.7812 187.137 62.3516ZM185.379 62.3516C185.379 61.3906 185.469 60.5391 185.648 59.7969C185.836 59.0547 186.086 58.4297 186.398 57.9219C186.719 57.4141 187.094 57.0312 187.523 56.7734C187.953 56.5078 188.418 56.375 188.918 56.375C189.395 56.375 189.844 56.5078 190.266 56.7734C190.688 57.0312 191.055 57.4141 191.367 57.9219C191.68 58.4297 191.926 59.0547 192.105 59.7969C192.293 60.5391 192.387 61.3906 192.387 62.3516C192.387 63.3125 192.293 64.1641 192.105 64.9062C191.926 65.6484 191.68 66.2734 191.367 66.7812C191.055 67.2891 190.688 67.6758 190.266 67.9414C189.844 68.207 189.395 68.3398 188.918 68.3398C188.418 68.3398 187.953 68.207 187.523 67.9414C187.094 67.6758 186.719 67.2891 186.398 66.7812C186.086 66.2734 185.836 65.6484 185.648 64.9062C185.469 64.1641 185.379 63.3125 185.379 62.3516ZM196.219 57.9688C196.445 57.4688 196.75 57.0781 197.133 56.7969C197.516 56.5156 197.918 56.375 198.34 56.375C198.66 56.375 198.977 56.4648 199.289 56.6445C199.602 56.8164 199.891 57.0898 200.156 57.4648L198.902 59.5156L198.867 59.4922C198.914 59.3672 198.938 59.1992 198.938 58.9883C198.938 58.8398 198.922 58.6836 198.891 58.5195C198.859 58.3555 198.809 58.207 198.738 58.0742C198.676 57.9336 198.594 57.8203 198.492 57.7344C198.391 57.6484 198.266 57.6055 198.117 57.6055C197.93 57.6055 197.734 57.6797 197.531 57.8281C197.336 57.9688 197.156 58.1719 196.992 58.4375C196.828 58.7031 196.691 59.0273 196.582 59.4102C196.473 59.7852 196.418 60.2109 196.418 60.6875C196.418 61.7109 196.418 62.7227 196.418 63.7227C196.426 64.7148 196.461 65.7148 196.523 66.7227C196.562 67.3398 196.848 67.7461 197.379 67.9414V68H193.57V67.9414C193.969 67.8555 194.254 67.6992 194.426 67.4727C194.605 67.2383 194.707 66.9727 194.73 66.6758C194.77 65.9023 194.801 65.1758 194.824 64.4961C194.848 63.8086 194.859 63.1367 194.859 62.4805C194.859 61.4883 194.852 60.6641 194.836 60.0078C194.82 59.3516 194.758 58.8281 194.648 58.4375C194.547 58.0469 194.379 57.7734 194.145 57.6172C193.918 57.4531 193.59 57.3711 193.16 57.3711V57.3125L196.336 56.375C196.273 56.5859 196.238 56.832 196.23 57.1133C196.223 57.3867 196.219 57.6719 196.219 57.9688ZM202.031 61.9414C202.031 61.2148 202.027 60.5977 202.02 60.0898C202.02 59.582 202.004 59.1602 201.973 58.8242C201.941 58.4805 201.891 58.2109 201.82 58.0156C201.758 57.8203 201.66 57.6758 201.527 57.582C201.402 57.4805 201.242 57.418 201.047 57.3945C200.852 57.3711 200.613 57.3594 200.332 57.3594V57.3008L203.742 56.3633C203.656 57.2148 203.609 58.1562 203.602 59.1875C203.602 60.2109 203.602 61.2734 203.602 62.375C203.602 62.8125 203.602 63.1797 203.602 63.4766C203.602 63.7734 203.602 64.0547 203.602 64.3203C203.609 64.5859 203.621 64.8672 203.637 65.1641C203.652 65.4531 203.676 65.8164 203.707 66.2539C203.738 66.6758 203.848 67.0312 204.035 67.3203C204.223 67.6016 204.516 67.8086 204.914 67.9414V68H200.684V67.9414C201.082 67.8086 201.367 67.5898 201.539 67.2852C201.711 66.9805 201.812 66.6211 201.844 66.207C201.859 65.8477 201.875 65.5352 201.891 65.2695C201.914 64.9961 201.93 64.75 201.938 64.5312C201.953 64.3125 201.965 64.1094 201.973 63.9219C201.988 63.7344 202 63.543 202.008 63.3477C202.016 63.1523 202.02 62.9453 202.02 62.7266C202.027 62.5 202.031 62.2383 202.031 61.9414ZM201.574 53.5273C201.574 53.2305 201.676 52.9805 201.879 52.7773C202.082 52.5664 202.332 52.4609 202.629 52.4609C202.926 52.4609 203.176 52.5664 203.379 52.7773C203.59 52.9805 203.695 53.2305 203.695 53.5273C203.695 53.8242 203.59 54.0742 203.379 54.2773C203.176 54.4805 202.926 54.582 202.629 54.582C202.332 54.582 202.082 54.4805 201.879 54.2773C201.676 54.0742 201.574 53.8242 201.574 53.5273ZM213.48 62.4688C213.48 63.4609 213.488 64.2734 213.504 64.9062C213.52 65.5312 213.578 66.0273 213.68 66.3945C213.781 66.7539 213.945 67.0039 214.172 67.1445C214.398 67.2773 214.727 67.3438 215.156 67.3438V67.4023L211.98 68.3398C212.043 68.1289 212.078 67.8867 212.086 67.6133C212.094 67.332 212.098 67.043 212.098 66.7461C211.887 67.0742 211.656 67.3438 211.406 67.5547C211.164 67.7578 210.914 67.918 210.656 68.0352C210.398 68.1523 210.141 68.2305 209.883 68.2695C209.633 68.3164 209.402 68.3398 209.191 68.3398C208.41 68.3398 207.797 67.9062 207.352 67.0391C206.914 66.1719 206.695 64.8867 206.695 63.1836C206.695 62.1211 206.688 61.25 206.672 60.5703C206.664 59.8828 206.609 59.3438 206.508 58.9531C206.406 58.5625 206.242 58.293 206.016 58.1445C205.797 57.9883 205.473 57.9102 205.043 57.9102V57.8516L208.805 56.4453C208.742 56.5469 208.688 56.6562 208.641 56.7734C208.602 56.8906 208.566 57.0352 208.535 57.207C208.504 57.3789 208.477 57.582 208.453 57.8164C208.438 58.0508 208.426 58.3398 208.418 58.6836C208.41 59.0273 208.402 59.4297 208.395 59.8906C208.395 60.3516 208.395 60.8906 208.395 61.5078C208.395 62.3438 208.402 63.1055 208.418 63.793C208.441 64.4727 208.492 65.0586 208.57 65.5508C208.656 66.0352 208.785 66.4141 208.957 66.6875C209.129 66.9531 209.367 67.0859 209.672 67.0859C209.953 67.0859 210.223 67.0078 210.48 66.8516C210.738 66.6953 210.965 66.457 211.16 66.1367C211.355 65.8086 211.512 65.4023 211.629 64.918C211.746 64.4258 211.805 63.8477 211.805 63.1836C211.805 62.1211 211.797 61.25 211.781 60.5703C211.773 59.8828 211.719 59.3438 211.617 58.9531C211.516 58.5625 211.352 58.293 211.125 58.1445C210.906 57.9883 210.582 57.9102 210.152 57.9102V57.8516L213.914 56.4453C213.852 56.5625 213.797 56.6875 213.75 56.8203C213.703 56.9531 213.664 57.1211 213.633 57.3242C213.602 57.5195 213.574 57.7578 213.551 58.0391C213.535 58.3203 213.52 58.668 213.504 59.082C213.496 59.4883 213.488 59.9688 213.48 60.5234C213.48 61.0781 213.48 61.7266 213.48 62.4688ZM223.406 60.5352C223.438 60.9961 223.461 61.4805 223.477 61.9883C223.492 62.4961 223.504 63.0117 223.512 63.5352C223.52 64.0508 223.523 64.5703 223.523 65.0938C223.523 65.6172 223.523 66.1289 223.523 66.6289C223.531 66.832 223.559 67.0039 223.605 67.1445C223.652 67.2852 223.715 67.4062 223.793 67.5078C223.871 67.6016 223.969 67.6836 224.086 67.7539C224.203 67.8242 224.34 67.8867 224.496 67.9414V68H220.957V67.9414C221.23 67.8164 221.43 67.6602 221.555 67.4727C221.68 67.2773 221.75 66.9805 221.766 66.582C221.773 66.2617 221.781 65.9414 221.789 65.6211C221.805 65.293 221.812 64.9805 221.812 64.6836C221.82 64.3867 221.824 64.1133 221.824 63.8633C221.832 63.6055 221.836 63.3867 221.836 63.207C221.836 62.3789 221.824 61.6211 221.801 60.9336C221.785 60.2461 221.734 59.6602 221.648 59.1758C221.57 58.6836 221.445 58.3047 221.273 58.0391C221.102 57.7656 220.863 57.6289 220.559 57.6289C220.277 57.6289 220.008 57.7031 219.75 57.8516C219.492 58 219.266 58.2109 219.07 58.4844C218.883 58.75 218.73 59.0703 218.613 59.4453C218.504 59.8203 218.449 60.2344 218.449 60.6875V61.7422C218.449 62.1172 218.449 62.5156 218.449 62.9375C218.457 63.3516 218.465 63.7695 218.473 64.1914C218.48 64.6133 218.488 65.0312 218.496 65.4453C218.512 65.8594 218.531 66.2539 218.555 66.6289C218.57 66.832 218.602 67.0039 218.648 67.1445C218.703 67.2852 218.773 67.4062 218.859 67.5078C218.945 67.6016 219.051 67.6836 219.176 67.7539C219.309 67.8242 219.465 67.8867 219.645 67.9414V68H215.602V67.9414C216 67.8164 216.285 67.6602 216.457 67.4727C216.637 67.2773 216.738 66.9805 216.762 66.582C216.777 66.207 216.793 65.8203 216.809 65.4219C216.824 65.0156 216.836 64.6172 216.844 64.2266C216.859 63.8281 216.871 63.4414 216.879 63.0664C216.887 62.6914 216.891 62.3398 216.891 62.0117C216.891 61.207 216.883 60.5391 216.867 60.0078C216.852 59.4688 216.797 59.0391 216.703 58.7188C216.617 58.3984 216.473 58.1719 216.27 58.0391C216.074 57.9062 215.793 57.8398 215.426 57.8398V57.7812L218.602 56.375C218.539 56.5547 218.504 56.7656 218.496 57.0078C218.488 57.2422 218.484 57.4844 218.484 57.7344C218.641 57.4531 218.812 57.2266 219 57.0547C219.188 56.875 219.379 56.7383 219.574 56.6445C219.77 56.543 219.961 56.4727 220.148 56.4336C220.344 56.3945 220.523 56.375 220.688 56.375C221.188 56.375 221.625 56.5195 222 56.8086C222.383 57.0977 222.688 57.5234 222.914 58.0859C223.094 57.7422 223.289 57.4609 223.5 57.2422C223.719 57.0156 223.938 56.8398 224.156 56.7148C224.383 56.582 224.602 56.4922 224.812 56.4453C225.031 56.3984 225.23 56.375 225.41 56.375C226.324 56.375 227.047 56.7734 227.578 57.5703C228.109 58.3672 228.375 59.5312 228.375 61.0625C228.375 61.5625 228.375 62.043 228.375 62.5039C228.375 62.9648 228.379 63.4219 228.387 63.875C228.395 64.3281 228.406 64.7812 228.422 65.2344C228.438 65.6875 228.457 66.1523 228.48 66.6289C228.496 66.832 228.531 67.0039 228.586 67.1445C228.641 67.2852 228.719 67.4062 228.82 67.5078C228.922 67.6016 229.043 67.6836 229.184 67.7539C229.324 67.8242 229.492 67.8867 229.688 67.9414V68H225.797V67.9414C226.109 67.8164 226.336 67.6602 226.477 67.4727C226.625 67.2773 226.707 66.9805 226.723 66.582C226.73 66.2617 226.738 65.9414 226.746 65.6211C226.762 65.293 226.77 64.9805 226.77 64.6836C226.777 64.3867 226.781 64.1133 226.781 63.8633C226.789 63.6055 226.793 63.3867 226.793 63.207C226.793 62.3789 226.781 61.6211 226.758 60.9336C226.742 60.2461 226.688 59.6602 226.594 59.1758C226.5 58.6836 226.359 58.3047 226.172 58.0391C225.984 57.7656 225.727 57.6289 225.398 57.6289C225.141 57.6289 224.891 57.6992 224.648 57.8398C224.414 57.9805 224.207 58.1797 224.027 58.4375C223.848 58.6953 223.699 59.0039 223.582 59.3633C223.473 59.7148 223.414 60.1055 223.406 60.5352Z" fill="#ABBBD6"/>
<path d="M8.58203 67.9414L8.75781 67.8711C9.03906 67.7852 9.23828 67.6445 9.35547 67.4492C9.48047 67.2539 9.53125 67.0352 9.50781 66.793C9.42969 65.8633 9.32812 64.9648 9.20312 64.0977C9.07812 63.2227 8.94531 62.3594 8.80469 61.5078C8.66406 60.6484 8.52344 59.7891 8.38281 58.9297C8.24219 58.0625 8.11719 57.1719 8.00781 56.2578C7.89844 57.1719 7.77344 58.0625 7.63281 58.9297C7.49219 59.7891 7.35156 60.6484 7.21094 61.5078C7.07031 62.3594 6.9375 63.2227 6.8125 64.0977C6.69531 64.9648 6.59766 65.8633 6.51953 66.793C6.48828 67.0352 6.53516 67.2539 6.66016 67.4492C6.78516 67.6445 6.98438 67.7852 7.25781 67.8711L7.44531 67.9414L7.45703 68H3.19141L3.20312 67.9414L3.37891 67.8711C3.66016 67.7461 3.85938 67.5586 3.97656 67.3086C4.10156 67.0586 4.15234 66.7695 4.12891 66.4414C4.04297 65.457 3.92578 64.5156 3.77734 63.6172C3.63672 62.7188 3.48828 61.8125 3.33203 60.8984C3.15234 59.8828 2.94922 58.8359 2.72266 57.7578C2.50391 56.6719 2.25391 55.5 1.97266 54.2422C1.87109 53.8281 1.70703 53.4688 1.48047 53.1641C1.26172 52.8594 0.941406 52.6406 0.519531 52.5078L0.507812 52.4492H4.72656L4.73828 52.5078C4.36328 52.6406 4.10547 52.8516 3.96484 53.1406C3.83203 53.4219 3.78516 53.7734 3.82422 54.1953C3.94922 55.3047 4.10156 56.4219 4.28125 57.5469C4.46094 58.6719 4.64062 59.8008 4.82031 60.9336C4.89062 61.4883 4.96875 62.0977 5.05469 62.7617C5.14062 63.418 5.23047 64.0547 5.32422 64.6719C5.41016 64.0547 5.49609 63.418 5.58203 62.7617C5.67578 62.0977 5.75781 61.4883 5.82812 60.9336C6.00781 59.8008 6.1875 58.6719 6.36719 57.5469C6.54688 56.4219 6.69922 55.3047 6.82422 54.1953C6.86328 53.7891 6.81641 53.4453 6.68359 53.1641C6.55078 52.875 6.30859 52.6641 5.95703 52.5312L5.89844 52.5078L5.88672 52.4492H10.1406L10.1289 52.5078L10.0586 52.5312C9.70703 52.6641 9.46484 52.875 9.33203 53.1641C9.20703 53.4453 9.16406 53.7891 9.20312 54.1953C9.32812 55.3047 9.48047 56.4219 9.66016 57.5469C9.83984 58.6719 10.0195 59.8008 10.1992 60.9336C10.2695 61.4883 10.3477 62.0977 10.4336 62.7617C10.5195 63.418 10.6094 64.0547 10.7031 64.6719C10.7891 64.0547 10.875 63.418 10.9609 62.7617C11.0547 62.0977 11.1367 61.4883 11.207 60.9336C11.3867 59.8008 11.5664 58.6719 11.7461 57.5469C11.9258 56.4219 12.0781 55.3047 12.2031 54.1953C12.2422 53.7734 12.1914 53.4219 12.0508 53.1406C11.918 52.8516 11.6641 52.6406 11.2891 52.5078L11.3008 52.4492H15.5195L15.5078 52.5078C15.0859 52.6406 14.7617 52.8594 14.5352 53.1641C14.3164 53.4688 14.1562 53.8281 14.0547 54.2422C13.7734 55.5 13.5195 56.6719 13.293 57.7578C13.0742 58.8359 12.875 59.8828 12.6953 60.8984C12.5391 61.8125 12.3867 62.7188 12.2383 63.6172C12.0977 64.5156 11.9844 65.457 11.8984 66.4414C11.8672 66.7695 11.9141 67.0586 12.0391 67.3086C12.1641 67.5586 12.3633 67.7461 12.6367 67.8711L12.8242 67.9414L12.8359 68H8.57031L8.58203 67.9414ZM17.2422 60.125L15.25 58.8945C15.3516 58.3398 15.5039 57.8984 15.707 57.5703C15.918 57.2344 16.1484 56.9805 16.3984 56.8086C16.6562 56.6289 16.9258 56.5117 17.207 56.457C17.4961 56.4023 17.7773 56.375 18.0508 56.375C19.0195 56.375 19.7422 56.7227 20.2188 57.418C20.7031 58.1133 20.9414 59.1406 20.9336 60.5C20.9336 61.2109 20.9297 61.8281 20.9219 62.3516C20.9219 62.8672 20.9219 63.3086 20.9219 63.6758C20.9219 64.043 20.918 64.3477 20.9102 64.5898C20.9102 64.8242 20.9102 65.0195 20.9102 65.1758C20.9102 65.3242 20.9102 65.4453 20.9102 65.5391C20.9102 65.6328 20.9102 65.7188 20.9102 65.7969C20.9102 65.9922 20.9219 66.1992 20.9453 66.418C20.9688 66.6367 21.0156 66.8477 21.0859 67.0508C21.1641 67.2461 21.2734 67.4258 21.4141 67.5898C21.5625 67.7461 21.7578 67.8633 22 67.9414V68H20.1836C20.0039 67.8906 19.8672 67.7422 19.7734 67.5547C19.6797 67.3672 19.6094 67.1602 19.5625 66.9336C19.5156 67.0273 19.4414 67.1562 19.3398 67.3203C19.2383 67.4766 19.1055 67.6328 18.9414 67.7891C18.7773 67.9375 18.5781 68.0664 18.3438 68.1758C18.1172 68.2852 17.8516 68.3398 17.5469 68.3398C17.1016 68.3398 16.7148 68.25 16.3867 68.0703C16.0664 67.8906 15.8008 67.6484 15.5898 67.3438C15.3789 67.0391 15.2227 66.6914 15.1211 66.3008C15.0195 65.9023 14.9688 65.4922 14.9688 65.0703C14.9688 64.5312 15.0508 63.9961 15.2148 63.4648C15.3867 62.9258 15.625 62.4453 15.9297 62.0234C16.2422 61.5938 16.6133 61.2461 17.043 60.9805C17.4727 60.7148 17.9531 60.582 18.4844 60.582C18.75 60.582 19.0039 60.6094 19.2461 60.6641C19.2461 60.0391 19.2188 59.5273 19.1641 59.1289C19.1094 58.7305 19.0273 58.418 18.918 58.1914C18.8086 57.9648 18.668 57.8125 18.4961 57.7344C18.332 57.6484 18.1406 57.6055 17.9219 57.6055C17.7344 57.6055 17.5742 57.6367 17.4414 57.6992C17.3164 57.7617 17.2109 57.8477 17.125 57.957C17.0469 58.0664 16.9883 58.1953 16.9492 58.3438C16.918 58.4844 16.9023 58.6367 16.9023 58.8008C16.9023 59.0195 16.9336 59.2422 16.9961 59.4688C17.0664 59.6953 17.1562 59.9023 17.2656 60.0898L17.2422 60.125ZM17.7461 67.0977C18.043 67.0977 18.2852 66.9883 18.4727 66.7695C18.668 66.543 18.8203 66.2656 18.9297 65.9375C19.0469 65.6094 19.1289 65.2617 19.1758 64.8945C19.2227 64.5195 19.2461 64.1836 19.2461 63.8867V61.6484C19.0195 61.5703 18.793 61.5312 18.5664 61.5312C18.2539 61.5312 17.9766 61.625 17.7344 61.8125C17.4922 61.9922 17.2891 62.2305 17.125 62.5273C16.9609 62.8242 16.8359 63.168 16.75 63.5586C16.6641 63.9492 16.6211 64.3477 16.6211 64.7539C16.6211 65.0664 16.6445 65.3633 16.6914 65.6445C16.7383 65.9258 16.8086 66.1758 16.9023 66.3945C16.9961 66.6055 17.1133 66.7773 17.2539 66.9102C17.3945 67.0352 17.5586 67.0977 17.7461 67.0977ZM24.2266 61.9414C24.2266 61.2148 24.2227 60.5977 24.2148 60.0898C24.2148 59.582 24.1992 59.1602 24.168 58.8242C24.1367 58.4805 24.0859 58.2109 24.0156 58.0156C23.9531 57.8203 23.8555 57.6758 23.7227 57.582C23.5977 57.4805 23.4375 57.418 23.2422 57.3945C23.0469 57.3711 22.8086 57.3594 22.5273 57.3594V57.3008L25.9375 56.3633C25.8516 57.2148 25.8047 58.1562 25.7969 59.1875C25.7969 60.2109 25.7969 61.2734 25.7969 62.375C25.7969 62.8125 25.7969 63.1797 25.7969 63.4766C25.7969 63.7734 25.7969 64.0547 25.7969 64.3203C25.8047 64.5859 25.8164 64.8672 25.832 65.1641C25.8477 65.4531 25.8711 65.8164 25.9023 66.2539C25.9336 66.6758 26.043 67.0312 26.2305 67.3203C26.418 67.6016 26.7109 67.8086 27.1094 67.9414V68H22.8789V67.9414C23.2773 67.8086 23.5625 67.5898 23.7344 67.2852C23.9062 66.9805 24.0078 66.6211 24.0391 66.207C24.0547 65.8477 24.0703 65.5352 24.0859 65.2695C24.1094 64.9961 24.125 64.75 24.1328 64.5312C24.1484 64.3125 24.1602 64.1094 24.168 63.9219C24.1836 63.7344 24.1953 63.543 24.2031 63.3477C24.2109 63.1523 24.2148 62.9453 24.2148 62.7266C24.2227 62.5 24.2266 62.2383 24.2266 61.9414ZM23.7695 53.5273C23.7695 53.2305 23.8711 52.9805 24.0742 52.7773C24.2773 52.5664 24.5273 52.4609 24.8242 52.4609C25.1211 52.4609 25.3711 52.5664 25.5742 52.7773C25.7852 52.9805 25.8906 53.2305 25.8906 53.5273C25.8906 53.8242 25.7852 54.0742 25.5742 54.2773C25.3711 54.4805 25.1211 54.582 24.8242 54.582C24.5273 54.582 24.2773 54.4805 24.0742 54.2773C23.8711 54.0742 23.7695 53.8242 23.7695 53.5273ZM35.4883 61.0625C35.4883 61.6094 35.4883 62.1133 35.4883 62.5742C35.4883 63.0273 35.4922 63.4727 35.5 63.9102C35.5078 64.3477 35.5195 64.793 35.5352 65.2461C35.5508 65.6992 35.5703 66.1914 35.5938 66.7227C35.6172 67.0195 35.7148 67.2734 35.8867 67.4844C36.0586 67.6875 36.3242 67.8398 36.6836 67.9414V68H33.0273V67.9414C33.3008 67.8555 33.4961 67.6992 33.6133 67.4727C33.7383 67.2383 33.8125 66.9727 33.8359 66.6758C33.8594 65.9414 33.875 65.2852 33.8828 64.707C33.8984 64.1211 33.9062 63.6211 33.9062 63.207C33.9062 62.3789 33.8984 61.6211 33.8828 60.9336C33.8672 60.2461 33.8203 59.6602 33.7422 59.1758C33.6641 58.6836 33.5469 58.3047 33.3906 58.0391C33.2422 57.7656 33.0273 57.6289 32.7461 57.6289C32.4883 57.6289 32.2461 57.7031 32.0195 57.8516C31.793 58 31.5938 58.2109 31.4219 58.4844C31.2578 58.75 31.125 59.0703 31.0234 59.4453C30.9219 59.8203 30.8711 60.2344 30.8711 60.6875V62.2109C30.8711 62.9688 30.8789 63.7227 30.8945 64.4727C30.9102 65.2148 30.9375 65.9648 30.9766 66.7227C31 67.0195 31.0781 67.2734 31.2109 67.4844C31.3516 67.6875 31.5586 67.8398 31.832 67.9414V68H28.0234V67.9414C28.4219 67.8555 28.707 67.6992 28.8789 67.4727C29.0586 67.2383 29.1602 66.9727 29.1836 66.6758C29.2227 65.9023 29.2539 65.1758 29.2773 64.4961C29.3008 63.8086 29.3125 63.1367 29.3125 62.4805C29.3125 61.582 29.3047 60.8359 29.2891 60.2422C29.2734 59.6484 29.2109 59.1758 29.1016 58.8242C29 58.4648 28.832 58.2109 28.5977 58.0625C28.3711 57.9141 28.043 57.8398 27.6133 57.8398V57.7812L30.7891 56.375C30.7266 56.5859 30.6914 56.832 30.6836 57.1133C30.6758 57.3867 30.6719 57.6719 30.6719 57.9688C30.8281 57.6406 31 57.375 31.1875 57.1719C31.375 56.9609 31.5664 56.7969 31.7617 56.6797C31.957 56.5625 32.1484 56.4844 32.3359 56.4453C32.5312 56.3984 32.7109 56.375 32.875 56.375C33.6875 56.375 34.3242 56.7734 34.7852 57.5703C35.2539 58.3594 35.4883 59.5234 35.4883 61.0625ZM38.4883 67.9531L38.6289 67.8945C38.8711 67.7852 39.043 67.625 39.1445 67.4141C39.2461 67.1953 39.2891 66.9453 39.2734 66.6641C39.2031 66 39.1055 65.3711 38.9805 64.7773C38.8555 64.1758 38.7266 63.5625 38.5938 62.9375C38.4531 62.2109 38.2969 61.4688 38.125 60.7109C37.9609 59.9453 37.7695 59.125 37.5508 58.25C37.4648 57.8984 37.3242 57.5898 37.1289 57.3242C36.9414 57.0586 36.668 56.8711 36.3086 56.7617L36.2969 56.7148H39.9883L40 56.7617C39.6797 56.8711 39.457 57.0508 39.332 57.3008C39.2148 57.5508 39.1758 57.8516 39.2148 58.2031C39.3242 59.1016 39.4648 60.0039 39.6367 60.9102C39.8086 61.8086 39.9727 62.7148 40.1289 63.6289C40.1914 64.0117 40.2578 64.4219 40.3281 64.8594C40.4062 65.2891 40.4844 65.7461 40.5625 66.2305C40.6406 65.7539 40.7148 65.2969 40.7852 64.8594C40.8633 64.4219 40.9336 64.0117 40.9961 63.6289C41.1523 62.7148 41.293 61.8086 41.418 60.9102C41.5508 60.0039 41.6719 59.1016 41.7812 58.2031C41.8203 57.8516 41.7773 57.5508 41.6523 57.3008C41.5352 57.0508 41.3164 56.8711 40.9961 56.7617L41.0078 56.7148H44.7578V56.7617C44.6016 56.8164 44.457 56.8867 44.3242 56.9727C44.1523 57.1055 44.0352 57.2773 43.9727 57.4883C43.9102 57.6992 43.8945 57.9375 43.9258 58.2031C44.0352 59.1016 44.1758 60.0039 44.3477 60.9102C44.5195 61.8086 44.6836 62.7148 44.8398 63.6289C44.9023 64.0117 44.9688 64.4219 45.0391 64.8594C45.1172 65.2891 45.1953 65.7461 45.2734 66.2305C45.3516 65.7539 45.4258 65.2969 45.4961 64.8594C45.5742 64.4219 45.6445 64.0117 45.707 63.6289C45.8633 62.7148 46.0039 61.8086 46.1289 60.9102C46.2617 60.0039 46.3828 59.1016 46.4922 58.2031C46.5312 57.8516 46.4883 57.5508 46.3633 57.3008C46.2461 57.0508 46.0273 56.8711 45.707 56.7617L45.7188 56.7148H49.4688V56.7617C49.1016 56.8789 48.8242 57.0703 48.6367 57.3359C48.4492 57.5938 48.3125 57.8984 48.2266 58.25C48.0078 59.125 47.8125 59.9453 47.6406 60.7109C47.4688 61.4688 47.3164 62.2109 47.1836 62.9375C47.043 63.5625 46.9102 64.1758 46.7852 64.7773C46.6602 65.3711 46.5625 66 46.4922 66.6641C46.4688 66.9453 46.5078 67.1953 46.6094 67.4141C46.7109 67.625 46.8828 67.7852 47.125 67.8945L47.2891 67.9531L47.3008 68H43.1875L43.1992 67.9531L43.3398 67.8945C43.582 67.7852 43.7539 67.625 43.8555 67.4141C43.957 67.1953 44 66.9453 43.9844 66.6641C43.9141 65.8594 43.8164 65.1055 43.6914 64.4023C43.5664 63.6914 43.4375 62.9688 43.3047 62.2344C43.2422 61.7969 43.1758 61.3477 43.1055 60.8867C43.0352 60.4258 42.9609 59.9648 42.8828 59.5039C42.8047 59.9648 42.7305 60.4258 42.6602 60.8867C42.5977 61.3477 42.5352 61.7969 42.4727 62.2344C42.332 62.9688 42.1992 63.6914 42.0742 64.4023C41.9492 65.1055 41.8516 65.8594 41.7812 66.6641C41.7578 66.9453 41.7969 67.1953 41.8984 67.4141C42 67.625 42.1719 67.7852 42.4141 67.8945L42.5781 67.9531L42.5898 68H38.4766L38.4883 67.9531ZM52.3984 57.9688C52.625 57.4688 52.9297 57.0781 53.3125 56.7969C53.6953 56.5156 54.0977 56.375 54.5195 56.375C54.8398 56.375 55.1562 56.4648 55.4688 56.6445C55.7812 56.8164 56.0703 57.0898 56.3359 57.4648L55.082 59.5156L55.0469 59.4922C55.0938 59.3672 55.1172 59.1992 55.1172 58.9883C55.1172 58.8398 55.1016 58.6836 55.0703 58.5195C55.0391 58.3555 54.9883 58.207 54.918 58.0742C54.8555 57.9336 54.7734 57.8203 54.6719 57.7344C54.5703 57.6484 54.4453 57.6055 54.2969 57.6055C54.1094 57.6055 53.9141 57.6797 53.7109 57.8281C53.5156 57.9688 53.3359 58.1719 53.1719 58.4375C53.0078 58.7031 52.8711 59.0273 52.7617 59.4102C52.6523 59.7852 52.5977 60.2109 52.5977 60.6875C52.5977 61.7109 52.5977 62.7227 52.5977 63.7227C52.6055 64.7148 52.6406 65.7148 52.7031 66.7227C52.7422 67.3398 53.0273 67.7461 53.5586 67.9414V68H49.75V67.9414C50.1484 67.8555 50.4336 67.6992 50.6055 67.4727C50.7852 67.2383 50.8867 66.9727 50.9102 66.6758C50.9492 65.9023 50.9805 65.1758 51.0039 64.4961C51.0273 63.8086 51.0391 63.1367 51.0391 62.4805C51.0391 61.4883 51.0312 60.6641 51.0156 60.0078C51 59.3516 50.9375 58.8281 50.8281 58.4375C50.7266 58.0469 50.5586 57.7734 50.3242 57.6172C50.0977 57.4531 49.7695 57.3711 49.3398 57.3711V57.3125L52.5156 56.375C52.4531 56.5859 52.418 56.832 52.4102 57.1133C52.4023 57.3867 52.3984 57.6719 52.3984 57.9688ZM58.2109 61.9414C58.2109 61.2148 58.207 60.5977 58.1992 60.0898C58.1992 59.582 58.1836 59.1602 58.1523 58.8242C58.1211 58.4805 58.0703 58.2109 58 58.0156C57.9375 57.8203 57.8398 57.6758 57.707 57.582C57.582 57.4805 57.4219 57.418 57.2266 57.3945C57.0312 57.3711 56.793 57.3594 56.5117 57.3594V57.3008L59.9219 56.3633C59.8359 57.2148 59.7891 58.1562 59.7812 59.1875C59.7812 60.2109 59.7812 61.2734 59.7812 62.375C59.7812 62.8125 59.7812 63.1797 59.7812 63.4766C59.7812 63.7734 59.7812 64.0547 59.7812 64.3203C59.7891 64.5859 59.8008 64.8672 59.8164 65.1641C59.832 65.4531 59.8555 65.8164 59.8867 66.2539C59.918 66.6758 60.0273 67.0312 60.2148 67.3203C60.4023 67.6016 60.6953 67.8086 61.0938 67.9414V68H56.8633V67.9414C57.2617 67.8086 57.5469 67.5898 57.7188 67.2852C57.8906 66.9805 57.9922 66.6211 58.0234 66.207C58.0391 65.8477 58.0547 65.5352 58.0703 65.2695C58.0938 64.9961 58.1094 64.75 58.1172 64.5312C58.1328 64.3125 58.1445 64.1094 58.1523 63.9219C58.168 63.7344 58.1797 63.543 58.1875 63.3477C58.1953 63.1523 58.1992 62.9453 58.1992 62.7266C58.207 62.5 58.2109 62.2383 58.2109 61.9414ZM57.7539 53.5273C57.7539 53.2305 57.8555 52.9805 58.0586 52.7773C58.2617 52.5664 58.5117 52.4609 58.8086 52.4609C59.1055 52.4609 59.3555 52.5664 59.5586 52.7773C59.7695 52.9805 59.875 53.2305 59.875 53.5273C59.875 53.8242 59.7695 54.0742 59.5586 54.2773C59.3555 54.4805 59.1055 54.582 58.8086 54.582C58.5117 54.582 58.2617 54.4805 58.0586 54.2773C57.8555 54.0742 57.7539 53.8242 57.7539 53.5273ZM68.8516 67.9883C68.8516 69.0664 68.7617 69.9648 68.582 70.6836C68.4102 71.4023 68.168 71.9805 67.8555 72.418C67.5508 72.8555 67.1875 73.1641 66.7656 73.3438C66.3516 73.5312 65.9062 73.625 65.4297 73.625C65.1484 73.625 64.8438 73.5664 64.5156 73.4492C64.1953 73.3398 63.8945 73.1562 63.6133 72.8984C63.3398 72.6484 63.1094 72.3203 62.9219 71.9141C62.7422 71.5078 62.6523 71.0156 62.6523 70.4375C62.6523 70.3281 62.6562 70.2188 62.6641 70.1094C62.6797 70 62.6953 69.8828 62.7109 69.7578L65.3945 69.1719L65.4062 69.2305C65.0312 69.457 64.7539 69.7188 64.5742 70.0156C64.4023 70.3125 64.3164 70.6211 64.3164 70.9414C64.3164 71.0898 64.3359 71.2422 64.375 71.3984C64.4141 71.5625 64.4766 71.7109 64.5625 71.8438C64.6484 71.9766 64.7578 72.0859 64.8906 72.1719C65.0234 72.2578 65.1875 72.3008 65.3828 72.3008C65.5234 72.3008 65.6602 72.2891 65.793 72.2656C65.9336 72.2422 66.0664 72.1836 66.1914 72.0898C66.3164 71.9961 66.4297 71.8477 66.5312 71.6445C66.6328 71.4492 66.7188 71.1758 66.7891 70.8242C66.8672 70.4805 66.9258 70.043 66.9648 69.5117C67.0117 68.9805 67.0352 68.3359 67.0352 67.5781C66.4727 67.9922 65.9258 68.1992 65.3945 68.1992C64.8945 68.1992 64.4336 68.0742 64.0117 67.8242C63.5898 67.5664 63.2266 67.1953 62.9219 66.7109C62.6172 66.2266 62.3789 65.6367 62.207 64.9414C62.043 64.2461 61.9609 63.457 61.9609 62.5742C61.9609 61.6836 62.0508 60.8633 62.2305 60.1133C62.4102 59.3555 62.6797 58.7031 63.0391 58.1562C63.4062 57.6016 63.8594 57.1719 64.3984 56.8672C64.9453 56.5547 65.582 56.3984 66.3086 56.3984C66.5352 56.3984 66.8164 56.4258 67.1523 56.4805C67.4883 56.5273 67.832 56.5586 68.1836 56.5742H70.2578V56.6328C69.8125 56.7812 69.4883 57.0312 69.2852 57.3828C69.082 57.7266 68.9805 58.1328 68.9805 58.6016C68.9805 59.0156 68.9766 59.4883 68.9688 60.0195C68.9609 60.5508 68.9531 61.1094 68.9453 61.6953C68.9375 62.2812 68.9258 62.875 68.9102 63.4766C68.9023 64.0781 68.8945 64.6562 68.8867 65.2109C68.8789 65.7656 68.8711 66.2852 68.8633 66.7695C68.8555 67.2461 68.8516 67.6523 68.8516 67.9883ZM67.0586 63.8867C67.0664 62.8711 67.0547 61.8242 67.0234 60.7461C67 59.6602 66.9648 58.6133 66.918 57.6055C66.8242 57.5664 66.7266 57.5352 66.625 57.5117C66.5312 57.4805 66.4531 57.4648 66.3906 57.4648C65.9922 57.4648 65.6289 57.5781 65.3008 57.8047C64.9727 58.0234 64.6914 58.3477 64.457 58.7773C64.2227 59.207 64.0391 59.7422 63.9062 60.3828C63.7812 61.0156 63.7188 61.7461 63.7188 62.5742C63.7188 65.5742 64.3789 67.0742 65.6992 67.0742C65.8789 67.0742 66.082 67.0391 66.3086 66.9688C66.543 66.8906 66.7891 66.7617 67.0469 66.582V66.418L67.0586 63.8867ZM78.9414 61.0625C78.9414 61.5703 78.9414 62.0391 78.9414 62.4688C78.9414 62.8984 78.9453 63.3203 78.9531 63.7344C78.9609 64.1484 78.9727 64.5664 78.9883 64.9883C79.0039 65.4102 79.0234 65.8711 79.0469 66.3711C79.0781 66.7617 79.1797 67.0938 79.3516 67.3672C79.5234 67.6328 79.7852 67.8242 80.1367 67.9414V68H76.3633V67.9414C76.6836 67.8164 76.9141 67.6133 77.0547 67.332C77.1953 67.043 77.2734 66.707 77.2891 66.3242C77.3359 65.0039 77.3594 63.9648 77.3594 63.207C77.3594 62.3789 77.3477 61.6211 77.3242 60.9336C77.3008 60.2461 77.2344 59.6602 77.125 59.1758C77.0234 58.6836 76.8633 58.3047 76.6445 58.0391C76.4258 57.7656 76.1211 57.6289 75.7305 57.6289C75.4336 57.6289 75.1484 57.7031 74.875 57.8516C74.6094 58 74.375 58.2109 74.1719 58.4844C73.9688 58.75 73.8047 59.0703 73.6797 59.4453C73.5625 59.8203 73.5039 60.2344 73.5039 60.6875V61.7422C73.5039 62.5234 73.5117 63.2969 73.5273 64.0625C73.543 64.8281 73.5703 65.5977 73.6094 66.3711C73.6328 66.7617 73.7188 67.0938 73.8672 67.3672C74.0234 67.6328 74.2617 67.8242 74.582 67.9414V68H70.6562V67.9414C71.0547 67.8164 71.3398 67.6133 71.5117 67.332C71.6836 67.043 71.7852 66.707 71.8164 66.3242C71.8242 65.043 71.8477 63.8555 71.8867 62.7617C71.9258 61.6602 71.9453 60.5898 71.9453 59.5508C71.9453 58.5508 71.9414 57.7031 71.9336 57.0078C71.9336 56.3047 71.918 55.7188 71.8867 55.25C71.8555 54.7812 71.8047 54.4102 71.7344 54.1367C71.6719 53.8633 71.5742 53.6602 71.4414 53.5273C71.3164 53.3867 71.1562 53.3008 70.9609 53.2695C70.7656 53.2305 70.5273 53.2109 70.2461 53.2109V53.1523L73.6562 52.2148C73.625 52.5273 73.6016 52.8906 73.5859 53.3047C73.5703 53.7188 73.5586 54.1641 73.5508 54.6406C73.543 55.1172 73.5391 55.6211 73.5391 56.1523C73.5391 56.6758 73.5391 57.2031 73.5391 57.7344C73.7031 57.4531 73.8828 57.2266 74.0781 57.0547C74.2812 56.875 74.4844 56.7383 74.6875 56.6445C74.8984 56.543 75.1016 56.4727 75.2969 56.4336C75.5 56.3945 75.6875 56.375 75.8594 56.375C76.3359 56.375 76.7617 56.4766 77.1367 56.6797C77.5195 56.8828 77.8438 57.1836 78.1094 57.582C78.375 57.9727 78.5781 58.4609 78.7188 59.0469C78.8672 59.625 78.9414 60.2969 78.9414 61.0625ZM83.9805 56.6562C84.4102 56.6562 84.7734 56.6523 85.0703 56.6445C85.375 56.6289 85.625 56.6133 85.8203 56.5977C86.0469 56.582 86.2305 56.5625 86.3711 56.5391L85.9023 58.0625C85.8164 57.9766 85.6914 57.8945 85.5273 57.8164C85.3867 57.7539 85.1914 57.6953 84.9414 57.6406C84.6914 57.5859 84.3672 57.5586 83.9688 57.5586H83.125C83.1172 57.832 83.1133 58.1133 83.1133 58.4023C83.1133 58.6836 83.1133 58.9727 83.1133 59.2695C83.1133 59.9492 83.1133 60.5586 83.1133 61.0977C83.1211 61.6289 83.125 62.1328 83.125 62.6094C83.1328 63.0781 83.1367 63.5469 83.1367 64.0156C83.1445 64.4766 83.1484 64.9805 83.1484 65.5273C83.1484 66.0742 83.2383 66.4648 83.418 66.6992C83.5977 66.9336 83.8008 67.0508 84.0273 67.0508C84.1523 67.0508 84.2773 67.0117 84.4023 66.9336C84.5273 66.8477 84.6406 66.7305 84.7422 66.582C84.8438 66.4258 84.9258 66.2461 84.9883 66.043C85.0508 65.832 85.082 65.6016 85.082 65.3516C85.082 65.1484 85.0586 64.9805 85.0117 64.8477L85.0469 64.8242L86.5352 67.3438C86.0273 67.6953 85.5547 67.9453 85.1172 68.0938C84.6875 68.25 84.2852 68.3281 83.9102 68.3281C83.5273 68.3281 83.1836 68.2305 82.8789 68.0352C82.582 67.8477 82.3281 67.5977 82.1172 67.2852C81.9141 66.9727 81.7578 66.6172 81.6484 66.2188C81.5391 65.8125 81.4844 65.3984 81.4844 64.9766C81.4844 64.5 81.4883 64.082 81.4961 63.7227C81.5039 63.3555 81.5078 63.0117 81.5078 62.6914C81.5156 62.3711 81.5234 62.0586 81.5312 61.7539C81.5391 61.4414 81.543 61.0977 81.543 60.7227C81.543 60.0352 81.543 59.4297 81.543 58.9062C81.543 58.375 81.5391 57.9062 81.5312 57.5C81.3047 57.4844 81.1172 57.4688 80.9688 57.4531C80.8203 57.4375 80.7031 57.4219 80.6172 57.4062C80.5156 57.3906 80.4336 57.375 80.3711 57.3594V56.6562H81.5195C81.5039 56.2031 81.4844 55.8516 81.4609 55.6016C81.4375 55.3438 81.4023 55.1523 81.3555 55.0273C81.3086 54.8945 81.2461 54.8125 81.168 54.7812C81.0977 54.75 81.0078 54.7344 80.8984 54.7344V54.6758L83.6055 53.3867C83.4727 53.8945 83.3711 54.4219 83.3008 54.9688C83.2383 55.5078 83.1914 56.0703 83.1602 56.6562H83.9805ZM87.5664 58.0156C87.5508 57.3047 87.5234 56.668 87.4844 56.1055C87.4453 55.5352 87.3945 55.0273 87.332 54.582C87.2773 54.1289 87.2109 53.7305 87.1328 53.3867C87.0547 53.0352 86.9648 52.7227 86.8633 52.4492H89.2422C89.1719 52.7305 89.0977 53.0469 89.0195 53.3984C88.9492 53.75 88.8828 54.1484 88.8203 54.5938C88.7578 55.0391 88.7031 55.543 88.6562 56.1055C88.6094 56.668 88.5742 57.3047 88.5508 58.0156H87.5664ZM92.3242 67.0977C92.4648 67.0977 92.5938 67.0625 92.7109 66.9922C92.8359 66.9219 92.9453 66.8281 93.0391 66.7109C93.1328 66.5938 93.2031 66.4648 93.25 66.3242C93.3047 66.1758 93.332 66.0273 93.332 65.8789C93.332 65.5898 93.2539 65.2812 93.0977 64.9531C92.9414 64.6172 92.7461 64.2695 92.5117 63.9102C92.2852 63.5508 92.0352 63.1758 91.7617 62.7852C91.4883 62.3945 91.2344 61.9922 91 61.5781C90.7734 61.1562 90.582 60.7266 90.4258 60.2891C90.2695 59.8438 90.1914 59.3906 90.1914 58.9297C90.1914 58.5625 90.2695 58.2227 90.4258 57.9102C90.5898 57.5977 90.8008 57.3281 91.0586 57.1016C91.3242 56.875 91.625 56.6992 91.9609 56.5742C92.3047 56.4414 92.6562 56.375 93.0156 56.375C93.4141 56.375 93.8047 56.4609 94.1875 56.6328C94.5781 56.8047 94.9258 57.0859 95.2305 57.4766L93.9766 59.3398L93.9414 59.3164C93.9883 59.1914 94.0117 59.0547 94.0117 58.9062C94.0117 58.7578 93.9883 58.6055 93.9414 58.4492C93.8945 58.293 93.8242 58.1523 93.7305 58.0273C93.6445 57.9023 93.5391 57.8008 93.4141 57.7227C93.2969 57.6445 93.1641 57.6055 93.0156 57.6055C92.8516 57.6055 92.6914 57.6367 92.5352 57.6992C92.3867 57.7539 92.2539 57.8359 92.1367 57.9453C92.0273 58.0469 91.9375 58.1758 91.8672 58.332C91.7969 58.4805 91.7617 58.6445 91.7617 58.8242C91.7617 59.1133 91.8398 59.4336 91.9961 59.7852C92.1602 60.1289 92.3633 60.4961 92.6055 60.8867C92.8477 61.2695 93.1055 61.6719 93.3789 62.0938C93.6602 62.5078 93.9219 62.9297 94.1641 63.3594C94.4062 63.7812 94.6055 64.2031 94.7617 64.625C94.9258 65.0391 95.0078 65.4414 95.0078 65.832C95.0078 66.207 94.9336 66.5508 94.7852 66.8633C94.6445 67.168 94.4531 67.4297 94.2109 67.6484C93.9688 67.8672 93.6914 68.0352 93.3789 68.1523C93.0664 68.2773 92.7422 68.3398 92.4062 68.3398C91.9609 68.3398 91.5234 68.2266 91.0938 68C90.6641 67.7656 90.3008 67.3867 90.0039 66.8633L91.2578 65.3516L91.293 65.3867C91.2227 65.5039 91.1875 65.6445 91.1875 65.8086C91.1875 65.957 91.2148 66.1094 91.2695 66.2656C91.332 66.4141 91.4102 66.5508 91.5039 66.6758C91.6055 66.8008 91.7266 66.9023 91.8672 66.9805C92.0078 67.0586 92.1602 67.0977 92.3242 67.0977Z" fill="#ABBBD6"/>
</svg>
